# xmcd
#
# Track frame offsets: 
#        150
#        15761
#        38142
#        57428
#        71830
#        97066
#        123638
#        141278
#        156990
#        180628
#        201835
#        223957
#        251267
#        275563
#        293541
#        324516
#
# Disc length: 4666 seconds
#
# Revision: 0
# Processed by: cddbd v1.5.2PL0 Copyright (c) Steve Scherf et al.
# Submitted via: ExactAudioCopy v1.0b3
#
DISCID=f5123810
DTITLE=Акула - Стаи птиц
DYEAR=2003
DGENRE=Pop
TTITLE0=Стаи птиц
TTITLE1=Вчера
TTITLE2=Такая любовь
TTITLE3=Мало
TTITLE4=Ты любишь маму
TTITLE5=Плачь
TTITLE6=Я убегаю (Full Mix)
TTITLE7=Ради тебя
TTITLE8=Полюби (Beat Mix)
TTITLE9=Сон мой
TTITLE10=Я люблю тебя
TTITLE11=Не молчи
TTITLE12=Ночь '2003 (DJ Alex Mix)
TTITLE13=Не холодно, не жарко
TTITLE14=Я с тобой
TTITLE15=Кислотный DJ (Bonus video Mpeg4)
EXTD=
EXTT0=
EXTT1=
EXTT2=
EXTT3=
EXTT4=
EXTT5=
EXTT6=
EXTT7=
EXTT8=
EXTT9=
EXTT10=
EXTT11=
EXTT12=
EXTT13=
EXTT14=
EXTT15=
PLAYORDER=
